<svg xmlns="http://www.w3.org/2000/svg" width="950.657" height="608.113" viewBox="0 0 950.657 608.113"><g transform="translate(-450.315 -175.004)"><path d="M483.418,779.882l618.476-.979,249.872-.111s13.618-49.392,17.925-114.49c4.564-68.828-1.277-155.211-44.608-219.352-84.564-125.167-83.9-178.513-126.485-221.888-3.025-3.085-6.274-6.116-9.784-9.121-10.617-9.091-23.658-17.927-40.4-27.115-40.677-22.331-82.233-9.449-130.58,9.188q-5.213,2-10.531,4.094c-36.48,14.273-76.9,30.535-123.645,36.885l-.108.014a291.961,291.961,0,0,1-73.78.756C687.936,223.494,487.851,222.371,530.538,474.74c.227,1.342.445,2.676.653,3.99,29.281,186.513-136.573,92.939-47.773,301.152" transform="translate(5.286)" fill="#fce4d1"/><path d="M510.089,449.235c.229,1.342.449,2.676.66,3.99,8.487-.391,18.2-2.732,29.314-7.313,0,0,109.337-203.3,326.72-234.412a298.14,298.14,0,0,1-74.55.756C669.128,197.99,466.957,196.866,510.089,449.235Z" transform="translate(25.814 25.505)" fill="#f4cbae"/><path d="M851.726,306.708l.063-.081-.063.081" transform="translate(318.06 104.293)" fill="#9aa3af"/><path d="M811.792,306.708l.063-.081-.063.081Z" transform="translate(286.419 104.293)" fill="#7a1415"/><g transform="translate(35.434 0)"><path d="M851.128,196.172c48.624-18.779,90.418-31.759,131.328-9.258,16.837,9.258,29.953,18.161,40.631,27.323,3.53,3.027,6.8,6.081,9.84,9.189V370.909H840.536V200.3q5.353-2.1,10.592-4.125Z" transform="translate(135.753 0)" fill="#f4cbae"/><path d="M847.876,196.186V355.374h167.013V214.263c-10.371-9.168-23.11-18.077-39.462-27.341-39.733-22.516-80.325-9.528-127.55,9.264Z" transform="translate(143.083 0)" fill="#f8ddcc"/></g><path d="M607.255,470.892l.653-2.289a15.671,15.671,0,0,0-.653,2.289Z" transform="translate(124.353 232.635)" fill="#a5370a"/><path d="M794.494,352.632s-49.209-15.439-53.554-16.8S679.1,300.577,679.1,300.577l-37.344,21.232s80.4,35.417,91.477,38.649c18.305,5.339,56.716.909,56.716.909,1.669,3.583,6.426,5,11.4,3.612s3.651-.444,7.182-1.335,1.579-5.9,1.579-5.9c-5.515-11.521-15.612-5.11-15.612-5.11Z" transform="translate(151.689 99.499)" fill="#f0966a"/><path d="M660.658,294.841l25.777,21.47-16.969,33.149-8.808-54.619Z" transform="translate(166.667 94.954)" fill="#5d9e5d"/><path d="M574.453,504.579c1.511,5.072,8.456,8.451,9.392,14.654.78,5.141,3.5,8.345,6.336,9.286h18.011c.43-1,1.4-4.277-3.669-5.382-6.008-1.316-8.275-8.6-7.9-15.364a87.519,87.519,0,0,0-.052-8.867c-.19-3.871-.505-6.913-.505-6.913l-12.781-3-1.343,1.721-1.283,1.656s-7.709,7.141-6.2,12.213Z" transform="translate(98.207 248.788)" fill="#aa2a2c"/><path d="M632.22,521.2h43.642c-.453-1.568-1.927-4.257-6.752-5.04-6.736-1.1-18.406-5-21.01-13.618-.079-.278-.158-.563-.22-.846-2.068-9.209-17.1,2.814-17.1,2.814s-.048.375-.111,1c-.348,3.357-1.231,14.143,1.547,15.69Z" transform="translate(142.581 256.106)" fill="#aa2a2c"/><path d="M679.129,375.433s-2.278,28.475-4.961,62.715c-3.647,46.5-8.035,103.625-8.467,114.442-.753,18.8-3.762,48.851-3.762,48.851s-7.135,7.141-21.415,4.131c0,0-12.728-42.911-16.364-88.309-.052-.742-.111-1.493-.168-2.24-3.379-46.214-8.639-143.536-8.639-143.536l63.777,3.947Z" transform="translate(130.768 155.684)" fill="#003475"/><path d="M679.129,375.433s-2.278,28.475-4.961,62.715L624.16,517.262c-.052-.742-.111-1.493-.168-2.24-3.379-46.214-8.639-143.536-8.639-143.536l63.777,3.947Z" transform="translate(130.768 155.684)" fill="#00284e"/><path d="M698.438,385.735s-41.14,103.141-68.2,151.612-35.507,61.994-35.507,61.994-15.5-6.2-16.906-10.423c0,0,10.346-93.575,28.461-116.39,10.24-12.887,22.263-51.571,22.826-65.1s5.7-44.678,5.7-44.678l63.62,22.983Z" transform="translate(101.036 148.763)" fill="#003475"/><path d="M641.7,300.4s22.184,21.247,38.891,21.257a38.3,38.3,0,0,0-7.614-11.6c1.074-2.094,2.009-4.018,2.816-5.743a99.912,99.912,0,0,0,4.1-9.94l-12-18.074-2.689-4.053a47.558,47.558,0,0,1-3.2,8.406c-.095.2-.19.4-.289.59C654.157,296.035,641.7,300.4,641.7,300.4Z" transform="translate(151.647 77.05)" fill="#f0966a"/><path d="M609.092,422.778c-.606,1.647,2.257,4.578,3.542,5.719a133.821,133.821,0,0,0,17.295,13.349,90.61,90.61,0,0,0,13.271,7c13.611,5.9,31.245,7.987,36.921,9.871a2.613,2.613,0,0,0,1.789-.1c.48-.19,6.216-17.275,12.771-39.047.263-.832.554-1.753.747-2.611l.095-.3c2.594-8.465,5.1-17.463,7.508-26.4,5.325-19.732,9.75-39,10.455-50.234.832-13.2-3.608-23.476-8.123-31.427l-3.778-6.3a26.106,26.106,0,0,1-15.723-7.153c-5.067-4.865-10.6-10.129-11.9-9.706-15.418,5.372-30.334,30.938-40.122,62.272-.3.988-.61,1.984-.916,2.982-.963,3.25-1.884,6.556-2.735,9.9-5.945,23.521-13.676,43.1-18.153,54.482-1.289,3.278-2.31,5.874-2.941,7.693Z" transform="translate(125.742 87.49)" fill="#88ba85"/><path d="M609.092,405.16c-.606,1.647,2.257,4.578,3.542,5.719a133.821,133.821,0,0,0,17.295,13.349c36.69-52.88,32.943-116.573,32.943-116.573l-29.95,25.426c-.963,3.25-1.884,6.556-2.735,9.9-5.945,23.521-13.676,43.1-18.153,54.482-1.289,3.278-2.31,5.874-2.941,7.693Z" transform="translate(125.742 105.108)" fill="#5d9e5d"/><path d="M652.84,279.17s.016.1.054.28c.441,2.142,3.667,16.076,14.075,23.071a99.88,99.88,0,0,0,4.1-9.94l-12-18.074a47.606,47.606,0,0,0-5.893,4.354l-.342.31Z" transform="translate(160.472 78.841)" fill="#eb7b47"/><path d="M679.129,304.685s-26.656.835-26.919-15.773-3.884-27.685,13.127-28.92,20.417,5.049,21.852,10.571-1.131,33.476-8.06,34.121Z" transform="translate(159.577 67.217)" fill="#f0966a"/><path d="M703.938,277.615a35.024,35.024,0,0,0,3.952-8.413s-4.726,3.368-12-3.97-20.788-16.683-32.6-11.376c-.747.337-1.489.715-2.21,1.131a27.263,27.263,0,0,1,3.336-5.716c-4.788,2.536-7.451,8.6-7.451,8.6h0c-.142.12-.283.244-.425.366-2.979-.036-8.336,3.23-8.336,3.23a7.156,7.156,0,0,1,5.151-.066c-6.019,6.875-9.071,16.052-5.9,22.322,4.64,9.17,6.524,6.877,9.6,17.936,0,0,4.026-.724,4.1-3.486s-2.878-9.444,1.952-9.374,3.563,3.6,5.994,2.88,1.362-9.883,11.792-8.56,20.189-1.025,23.041-5.5Z" transform="translate(155.199 58.846)" fill="#00284e"/><path d="M730.892,402.348l.963-1.384,4.624,2.348-5.587-.964Zm-83.389,7.73.337,2.036L725.4,399.108l-2.963,4.23-.921-.31-1.031,3.094-41.837,59.768,1.69,1.185L718.2,413,697.781,474.24l1.957.652,22.609-67.828,4.8-6.858.848.584.063.179-1.43,1.446V480.76h2.063v-76.7l.509.09,1.952,5.431-.147.125.326.369,21.847,60.883,1.941-.7-20.051-55.88L775.386,460.8l1.558-1.353-43.805-50.423-1.6-4.468,11.192,1.927L801.5,436.272l.932-1.843-52.792-26.762L808.5,417.793l.348-2.038L743.389,404.5l-10.6-5.377,1.353-1.364,73.648-10.928-.3-2.041-70.918,10.523.59-.593,64.177-27.566-.81-1.9-59.488,25.555,46.693-47.1-1.463-1.454-50.292,50.729-5.657,2.43,40.52-63.747-1.742-1.108-36.88,58.02c7.893-20.779,25.935-68.289,26.346-69.526l-1.957-.652c-.389,1.174-18.61,49.157-28.981,76.46q-.712-1.737-1.453-3.572l6.124-74.024-2.056-.17-5.789,69.963c-10.882-26.744-26.382-64.912-26.776-66.077l-1.957.654c.4,1.213,18.148,44.872,26.613,65.692l-38.179-60.377-1.748,1.1,43.49,68.773-64.731-44.886-1.178,1.7L723.1,397.4l-75.6,12.681Z" transform="translate(156.243 112.587)" fill="#00478f"/><path d="M714.174,368.785a15.223,15.223,0,1,1-15.223-15.221,15.224,15.224,0,0,1,15.223,15.221Z" transform="translate(184.947 141.483)" fill="#0c2951"/><path d="M731.686,478.407A76.91,76.91,0,1,0,654.8,401.522a76.972,76.972,0,0,0,76.885,76.885Zm0-166.159A89.226,89.226,0,1,1,686.519,324.5a89.374,89.374,0,0,1,45.167-12.253Z" transform="translate(152.213 108.746)" fill="#0c2951"/><path d="M726.6,471.98a75.458,75.458,0,1,0-75.46-75.458A75.545,75.545,0,0,0,726.6,471.98Zm0-154.091a78.634,78.634,0,1,1-78.633,78.632A78.721,78.721,0,0,1,726.6,317.889Z" transform="translate(156.613 113.216)" fill="#bb342f"/><path d="M682.88,409.843c-4.778-2.941-15.87-4.23-15.87-4.23S641.929,373.1,638.088,365.7s39.857-29.737,41.389-42.1,3.977-35.286-13.687-34.261c0,0-42.094,33.786-58.884,75.575,0,0,18.832,35.22,51.781,50.641,0,0,19,11.444,22.315,12.254s5.983-3.1,7.166-5.345-.509-9.677-5.288-12.618Z" transform="translate(124.076 90.565)" fill="#f0966a"/><path d="M658.205,339.711s-15.959-21.528-31.3-25.855a.892.892,0,0,1-.457-1.421c3.493-4.273,16.794-19.919,28.608-25.426,0,0,20.825,10.872,18.169,21.768s-15.018,30.934-15.018,30.934Z" transform="translate(139.401 88.747)" fill="#88ba85"/><path d="M731.132,328.7s-4.121.3-3.463,2.05,6.246,12.962,13.034,10.559L731.132,328.7Z" transform="translate(219.707 121.779)" fill="#f0966a"/><path d="M875.028,446.368c0,.505.027,1.006.074,1.495l-65,10.908.342,2.036,65-10.908a15.254,15.254,0,0,0,5.257,8.32l-39.453,56.363,1.688,1.185,37.855-54.081-20.417,61.247,1.963.652,21.184-63.562a15.071,15.071,0,0,0,5.7,1.533v67.9h2.067v-67.9a15.193,15.193,0,0,0,3.411-.622l21.073,58.716,1.941-.694-20.053-55.886,40.321,46.42,1.557-1.359-42.026-48.376a15.289,15.289,0,0,0,5.442-4.994l2.379.41,58.762,29.787.932-1.842L912.239,456.36l58.852,10.118.353-2.031-65.457-11.26-1.721-.867a15.11,15.11,0,0,0,1.206-5.953c0-.405-.016-.8-.054-1.2l64.967-9.639-.3-2.042-64.962,9.639a15.463,15.463,0,0,0-.511-1.8l59.322-25.482-.815-1.895L903.8,439.428l-.03-.063,46.56-46.967-1.468-1.452-46.2,46.6a15.353,15.353,0,0,0-3.387-3.441l34.169-53.753-1.742-1.106L897.533,433c-.3-.163-.611-.315-.921-.459,8.535-22.473,24.168-63.645,24.552-64.792L919.2,367.1c-.337,1.015-14.108,37.3-24.52,64.708a15.244,15.244,0,0,0-4.431-.656c-.253,0-.505.009-.753.02l5.393-65.213-2.058-.168L887.4,431.419a14.959,14.959,0,0,0-1.916.495c-10.74-26.409-24.84-61.13-25.218-62.241l-1.959.652c.385,1.152,16.4,40.557,25.263,62.363-.19.093-.38.188-.568.289l-36.26-57.337L845,376.745l36.259,57.343a15.242,15.242,0,0,0-3.689,3.855l-53.817-37.315-1.179,1.694,53.966,37.421a15.178,15.178,0,0,0-1.516,6.624Z" transform="translate(285.077 151.167)" fill="#0c2951"/><path d="M894.282,527.1a76.912,76.912,0,1,0-76.885-76.89,76.975,76.975,0,0,0,76.885,76.89Zm0-166.161a89.25,89.25,0,1,1-45.162,12.254,89.373,89.373,0,0,1,45.162-12.254Z" transform="translate(281.045 147.326)" fill="#0c2951"/><path d="M889.2,520.673a75.459,75.459,0,1,0-75.453-75.458A75.545,75.545,0,0,0,889.2,520.673Zm0-154.1a78.634,78.634,0,1,1-78.631,78.638A78.725,78.725,0,0,1,889.2,366.577Z" transform="translate(285.447 151.794)" fill="#bb342f"/><path d="M701.369,410.442l55.454,120.394-7.108,2.846a8.992,8.992,0,0,1-11.7-5.029L692.6,414.2a4.77,4.77,0,0,1,8.766-3.757Z" transform="translate(191.712 184.352)" fill="#00478f"/><path d="M838.466,416.669l19.169,59.963L763.354,537l75.112-120.326ZM723.707,537.58c20.137,52.249,20.39,52.627,20.768,53.19l7.73-5.146c.1.152-3.153-7.845-7.388-18.357l116.591-78.831,32.123,98.678,8.845-2.83L869.427,483.015l91.3-61.725a4.894,4.894,0,0,0-2.316-8.93l-110.076-9.571-.8,9.256,97.716,8.5-79.514,50.906-21.806-68.2-8.851,2.827,2.5,7.808-5.936-3.825L737.677,549.418c-2.042-5.157-4.035-10.224-5.766-14.717l-8.2,2.878Z" transform="translate(216.624 180.487)" fill="#003158"/><path d="M732.108,518.03a7.991,7.991,0,0,0,7.519-5.287l22,1.256a8.008,8.008,0,1,0,1.952-9.218l-27.289-1.557a8,8,0,1,0-4.182,14.807Z" transform="translate(216.942 259.125)" fill="#00478f"/><path d="M804.342,472.112a5.65,5.65,0,0,0,7.2,3.457l5.146-1.81a15.83,15.83,0,0,1,12.314.758c18.762,9.356,41.594,14.086,68.034,14.086.315,0,.636,0,.957-.005,11.8-.048,32.927-2.941,41.973-4.289a5.032,5.032,0,0,0,4.293-4.983v-3.262a1.482,1.482,0,0,0-1.789-1.452l-.025.005c-16.717,3.509-74.506,12.991-116.275-12.245a4.64,4.64,0,0,0-3.941-.4l-15.653,5.5a3.643,3.643,0,0,0-2.231,4.646Z" transform="translate(280.351 227.169)" fill="#bb342f"/><path d="M868.1,511.952s1.678,7.614-3.1,8.128-22.188-3.224-26.835-2.71-28.9,4.515-33.153.385-2.452-7.741,6.067-8.514,19.863-2.194,23.087-4.9,26.577-10.708,33.929,7.614Z" transform="translate(279.292 257.717)" fill="#00478f"/><path d="M763.058,399.194h8.533l17.979,8.193a23.3,23.3,0,1,0,1.353-3.352L780.3,399.194h2.882a4.3,4.3,0,0,0,0-8.6H763.058a4.3,4.3,0,1,0,0,8.6Z" transform="translate(244.393 170.822)" fill="#00478f"/><path d="M451.679,517.149h947.927c.752,0,1.366-.984,1.366-2.183v-2.11c0-1.2-.614-2.185-1.366-2.185H451.679c-.751,0-1.364.984-1.364,2.185v2.11c0,1.2.613,2.183,1.364,2.183Z" transform="translate(0 265.968)" fill="#192540"/></g></svg>